<svg id="Capa_1" enable-background="new 0 0 511.927 511.927" height="512" viewBox="0 0 511.927 511.927" width="512" xmlns="http://www.w3.org/2000/svg"><g><g><path d="m255.963 511.927-149.968-149.969c-82.693-82.693-82.693-217.245 0-299.938s217.244-82.693 299.938 0c82.693 82.693 82.693 217.245 0 299.938zm0-481.941c-46.629 0-93.258 17.749-128.756 53.247-70.996 70.996-70.996 186.516 0 257.512l128.756 128.755 128.756-128.755c70.996-70.996 70.996-186.516 0-257.512-35.498-35.498-82.127-53.247-128.756-53.247z"/></g><g><path d="m255.963 334.125c-67.319 0-122.088-54.769-122.088-122.088s54.769-122.088 122.088-122.088 122.088 54.769 122.088 122.088-54.768 122.088-122.088 122.088zm0-214.176c-50.777 0-92.088 41.311-92.088 92.088 0 50.778 41.311 92.088 92.088 92.088s92.088-41.311 92.088-92.088c0-50.778-41.31-92.088-92.088-92.088z"/></g></g></svg>